<svg id="Layer_1" data-name="Layer 1" xmlns="http://www.w3.org/2000/svg" viewBox="0 0 514 514"><defs><style>.cls-1{fill:none;}.cls-1,.cls-2{stroke:#d97c2f;}.cls-1,.cls-2,.cls-3,.cls-4{stroke-miterlimit:10;stroke-width:7px;}.cls-2{fill:#d97c2f;}.cls-3{fill:#0a0a0a;stroke:#0a0a0a;}.cls-4{fill:#abb1bf;stroke:#abb1bf;}</style></defs><title>logo</title><polygon class="cls-1" points="495.7 265.74 390.67 447.66 183.06 447.66 388.33 83.8 390.67 83.8 495.7 265.74"/><polygon class="cls-2" points="331.72 82.21 126.45 446.07 123.99 446.07 18.95 264.15 123.99 82.21 331.72 82.21"/><line class="cls-1" x1="126.46" y1="446.07" x2="88.14" y2="514"/><line class="cls-1" x1="436.48" x2="375.52" y2="106.44"/><polygon class="cls-3" points="194.46 123.17 194.46 291.83 89.05 291.83 89.05 260.2 99.59 260.2 99.59 281.29 183.92 281.29 183.92 133.71 131.21 133.71 131.21 123.17 194.46 123.17"/><rect class="cls-4" x="316.89" y="244.79" width="105.42" height="10.54"/><polygon class="cls-4" points="422.3 318.58 422.3 329.12 327.43 329.12 327.43 413.46 316.89 413.46 316.89 318.58 422.3 318.58"/></svg>